<svg width="1349" height="675" xmlns="http://www.w3.org/2000/svg"><g><path d="M-18,-17L-57,91L66,63Z" fill="#f9f9f9" stroke="#f9f9f9"/><path d="M-18,-17L66,63L52,-72Z" fill="#f9f9f9" stroke="#f9f9f9"/><path d="M52,-72L66,63L146,43Z" fill="#f4f4f4" stroke="#f4f4f4"/><path d="M52,-72L146,43L157,-45Z" fill="#f2f2f2" stroke="#f2f2f2"/><path d="M52,-72L157,-45L500,-72Z" fill="#e8e8e8" stroke="#e8e8e8"/><path d="M52,-72L500,-72L624,-108Z" fill="#dadada" stroke="#dadada"/><path d="M157,-45L146,43L275,81Z" fill="#ebebeb" stroke="#ebebeb"/><path d="M157,-45L275,81L348,-36Z" fill="#e7e7e7" stroke="#e7e7e7"/><path d="M157,-45L348,-36L500,-72Z" fill="#dfdfdf" stroke="#dfdfdf"/><path d="M348,-36L275,81L436,104Z" fill="#dbdbdb" stroke="#dbdbdb"/><path d="M348,-36L436,104L500,-72Z" fill="#d6d6d6" stroke="#d6d6d6"/><path d="M500,-72L436,104L586,104Z" fill="#cccccc" stroke="#cccccc"/><path d="M500,-72L586,104L624,-108Z" fill="#c8c8c8" stroke="#c8c8c8"/><path d="M624,-108L586,104L716,-111Z" fill="#c1c1c1" stroke="#c1c1c1"/><path d="M716,-111L586,104L765,114Z" fill="#bbbbbb" stroke="#bbbbbb"/><path d="M716,-111L765,114L845,88Z" fill="#b3b3b3" stroke="#b3b3b3"/><path d="M716,-111L845,88L889,-33Z" fill="#b0b0b0" stroke="#b0b0b0"/><path d="M716,-111L889,-33L1014,-58Z" fill="#aaaaaa" stroke="#aaaaaa"/><path d="M716,-111L1014,-58L1514,-60Z" fill="#929292" stroke="#929292"/><path d="M889,-33L845,88L972,49Z" fill="#a5a5a5" stroke="#a5a5a5"/><path d="M889,-33L972,49L1014,-58Z" fill="#a0a0a0" stroke="#a0a0a0"/><path d="M1014,-58L972,49L1055,76Z" fill="#999999" stroke="#999999"/><path d="M1014,-58L1055,76L1110,-33Z" fill="#949494" stroke="#949494"/><path d="M1014,-58L1110,-33L1366,-41Z" fill="#898989" stroke="#898989"/><path d="M1014,-58L1366,-41L1514,-60Z" fill="#808080" stroke="#808080"/><path d="M1110,-33L1055,76L1275,98Z" fill="#888888" stroke="#888888"/><path d="M1110,-33L1275,98L1252,-15Z" fill="#828282" stroke="#828282"/><path d="M1110,-33L1252,-15L1366,-41Z" fill="#808080" stroke="#808080"/><path d="M1252,-15L1275,98L1366,-41Z" fill="#7f7f7f" stroke="#7f7f7f"/><path d="M1366,-41L1275,98L1408,23Z" fill="#7f7f7f" stroke="#7f7f7f"/><path d="M1366,-41L1408,23L1514,-60Z" fill="#808080" stroke="#808080"/><path d="M1514,-60L1408,23L1504,66Z" fill="#7f7f7f" stroke="#7f7f7f"/><path d="M1514,-60L1504,66L1528,200Z" fill="#7d7d7d" stroke="#7d7d7d"/><path d="M-57,91L-103,445L-53,202Z" fill="#dfdfdf" stroke="#dfdfdf"/><path d="M-57,91L-53,202L66,63Z" fill="#f7f7f7" stroke="#f7f7f7"/><path d="M66,63L-53,202L99,224Z" fill="#ececec" stroke="#ececec"/><path d="M66,63L99,224L161,217Z" fill="#e5e5e5" stroke="#e5e5e5"/><path d="M66,63L161,217L146,43Z" fill="#ececec" stroke="#ececec"/><path d="M146,43L161,217L275,81Z" fill="#e7e7e7" stroke="#e7e7e7"/><path d="M275,81L161,217L239,282Z" fill="#d5d5d5" stroke="#d5d5d5"/><path d="M275,81L239,282L350,239Z" fill="#cecece" stroke="#cecece"/><path d="M275,81L350,239L436,104Z" fill="#d6d6d6" stroke="#d6d6d6"/><path d="M436,104L350,239L460,221Z" fill="#c5c5c5" stroke="#c5c5c5"/><path d="M436,104L460,221L586,104Z" fill="#c7c7c7" stroke="#c7c7c7"/><path d="M586,104L460,221L613,160Z" fill="#bdbdbd" stroke="#bdbdbd"/><path d="M586,104L613,160L765,114Z" fill="#bababa" stroke="#bababa"/><path d="M765,114L613,160L751,189Z" fill="#b0b0b0" stroke="#b0b0b0"/><path d="M765,114L751,189L799,170Z" fill="#a9a9a9" stroke="#a9a9a9"/><path d="M765,114L799,170L845,88Z" fill="#acacac" stroke="#acacac"/><path d="M845,88L799,170L940,164Z" fill="#a4a4a4" stroke="#a4a4a4"/><path d="M845,88L940,164L972,49Z" fill="#a0a0a0" stroke="#a0a0a0"/><path d="M972,49L940,164L1055,76Z" fill="#989898" stroke="#989898"/><path d="M1055,76L940,164L1074,188Z" fill="#919191" stroke="#919191"/><path d="M1055,76L1074,188L1275,98Z" fill="#868686" stroke="#868686"/><path d="M1275,98L1074,188L1280,177Z" fill="#797979" stroke="#797979"/><path d="M1275,98L1280,177L1412,167Z" fill="#777777" stroke="#777777"/><path d="M1275,98L1412,167L1408,23Z" fill="#7b7b7b" stroke="#7b7b7b"/><path d="M1408,23L1412,167L1504,66Z" fill="#7c7c7c" stroke="#7c7c7c"/><path d="M1504,66L1412,167L1528,200Z" fill="#787878" stroke="#787878"/><path d="M-53,202L-103,445L-63,370Z" fill="#cacaca" stroke="#cacaca"/><path d="M-53,202L-63,370L22,281Z" fill="#d5d5d5" stroke="#d5d5d5"/><path d="M-53,202L22,281L99,224Z" fill="#dbdbdb" stroke="#dbdbdb"/><path d="M99,224L22,281L168,438Z" fill="#c4c4c4" stroke="#c4c4c4"/><path d="M99,224L168,438L239,282Z" fill="#bebebe" stroke="#bebebe"/><path d="M99,224L239,282L161,217Z" fill="#cfcfcf" stroke="#cfcfcf"/><path d="M350,239L239,282L316,277Z" fill="#bebebe" stroke="#bebebe"/><path d="M350,239L316,277L481,346Z" fill="#b0b0b0" stroke="#b0b0b0"/><path d="M350,239L481,346L460,221Z" fill="#b0b0b0" stroke="#b0b0b0"/><path d="M460,221L481,346L536,341Z" fill="#a2a2a2" stroke="#a2a2a2"/><path d="M460,221L536,341L613,160Z" fill="#acacac" stroke="#acacac"/><path d="M613,160L536,341L700,322Z" fill="#9c9c9c" stroke="#9c9c9c"/><path d="M613,160L700,322L751,189Z" fill="#a2a2a2" stroke="#a2a2a2"/><path d="M751,189L700,322L852,299Z" fill="#8f8f8f" stroke="#8f8f8f"/><path d="M751,189L852,299L799,170Z" fill="#989898" stroke="#989898"/><path d="M799,170L852,299L940,164Z" fill="#939393" stroke="#939393"/><path d="M940,164L852,299L1013,364Z" fill="#7b7b7b" stroke="#7b7b7b"/><path d="M940,164L1013,364L1074,188Z" fill="#7c7c7c" stroke="#7c7c7c"/><path d="M1074,188L1013,364L1078,349Z" fill="#686868" stroke="#686868"/><path d="M1074,188L1078,349L1246,316Z" fill="#636363" stroke="#636363"/><path d="M1074,188L1246,316L1280,177Z" fill="#686868" stroke="#686868"/><path d="M1280,177L1246,316L1317,368Z" fill="#565656" stroke="#565656"/><path d="M1280,177L1317,368L1412,167Z" fill="#616161" stroke="#616161"/><path d="M1412,167L1317,368L1460,297Z" fill="#585858" stroke="#585858"/><path d="M1412,167L1460,297L1528,200Z" fill="#656565" stroke="#656565"/><path d="M1528,200L1460,297L1534,576Z" fill="#464646" stroke="#464646"/><path d="M-63,370L-103,445L36,465Z" fill="#b4b4b4" stroke="#b4b4b4"/><path d="M-63,370L36,465L22,281Z" fill="#bebebe" stroke="#bebebe"/><path d="M22,281L36,465L168,438Z" fill="#b3b3b3" stroke="#b3b3b3"/><path d="M239,282L168,438L318,446Z" fill="#a7a7a7" stroke="#a7a7a7"/><path d="M239,282L318,446L316,277Z" fill="#afafaf" stroke="#afafaf"/><path d="M316,277L318,446L481,346Z" fill="#a2a2a2" stroke="#a2a2a2"/><path d="M481,346L318,446L502,465Z" fill="#8d8d8d" stroke="#8d8d8d"/><path d="M481,346L502,465L536,341Z" fill="#8e8e8e" stroke="#8e8e8e"/><path d="M536,341L502,465L614,480Z" fill="#7f7f7f" stroke="#7f7f7f"/><path d="M536,341L614,480L688,418Z" fill="#7d7d7d" stroke="#7d7d7d"/><path d="M536,341L688,418L700,322Z" fill="#878787" stroke="#878787"/><path d="M700,322L688,418L852,299Z" fill="#808080" stroke="#808080"/><path d="M852,299L688,418L876,486Z" fill="#6e6e6e" stroke="#6e6e6e"/><path d="M852,299L876,486L1013,364Z" fill="#666666" stroke="#666666"/><path d="M1013,364L876,486L980,493Z" fill="#505050" stroke="#505050"/><path d="M1013,364L980,493L1077,433Z" fill="#4d4d4d" stroke="#4d4d4d"/><path d="M1013,364L1077,433L1078,349Z" fill="#555555" stroke="#555555"/><path d="M1078,349L1077,433L1246,316Z" fill="#505050" stroke="#505050"/><path d="M1246,316L1077,433L1258,459Z" fill="#414141" stroke="#414141"/><path d="M1246,316L1258,459L1317,368Z" fill="#414141" stroke="#414141"/><path d="M1317,368L1258,459L1409,435Z" fill="#373737" stroke="#373737"/><path d="M1317,368L1409,435L1460,297Z" fill="#444444" stroke="#444444"/><path d="M1460,297L1409,435L1446,498Z" fill="#3a3a3a" stroke="#3a3a3a"/><path d="M1460,297L1446,498L1534,576Z" fill="#2d2d2d" stroke="#2d2d2d"/><path d="M-103,445L-108,718L-88,623Z" fill="#878787" stroke="#878787"/><path d="M-103,445L-88,623L39,536Z" fill="#979797" stroke="#979797"/><path d="M-103,445L39,536L36,465Z" fill="#a2a2a2" stroke="#a2a2a2"/><path d="M36,465L39,536L168,438Z" fill="#9c9c9c" stroke="#9c9c9c"/><path d="M168,438L39,536L231,598Z" fill="#8b8b8b" stroke="#8b8b8b"/><path d="M168,438L231,598L303,556Z" fill="#828282" stroke="#828282"/><path d="M168,438L303,556L318,446Z" fill="#8d8d8d" stroke="#8d8d8d"/><path d="M318,446L303,556L425,592Z" fill="#777777" stroke="#777777"/><path d="M318,446L425,592L502,465Z" fill="#787878" stroke="#787878"/><path d="M502,465L425,592L583,616Z" fill="#606060" stroke="#606060"/><path d="M502,465L583,616L614,480Z" fill="#646464" stroke="#646464"/><path d="M614,480L583,616L701,601Z" fill="#515151" stroke="#515151"/><path d="M614,480L701,601L688,418Z" fill="#606060" stroke="#606060"/><path d="M688,418L701,601L815,580Z" fill="#515151" stroke="#515151"/><path d="M688,418L815,580L876,486Z" fill="#565656" stroke="#565656"/><path d="M876,486L815,580L981,565Z" fill="#3d3d3d" stroke="#3d3d3d"/><path d="M876,486L981,565L980,493Z" fill="#3f3f3f" stroke="#3f3f3f"/><path d="M980,493L981,565L1064,547Z" fill="#323232" stroke="#323232"/><path d="M980,493L1064,547L1077,433Z" fill="#3b3b3b" stroke="#3b3b3b"/><path d="M1077,433L1064,547L1258,459Z" fill="#333333" stroke="#333333"/><path d="M1258,459L1064,547L1266,627Z" fill="#1a1a1a" stroke="#1a1a1a"/><path d="M1258,459L1266,627L1403,618Z" fill="#0f0f0f" stroke="#0f0f0f"/><path d="M1258,459L1403,618L1446,498Z" fill="#1a1a1a" stroke="#1a1a1a"/><path d="M1258,459L1446,498L1409,435Z" fill="#2b2b2b" stroke="#2b2b2b"/><path d="M1446,498L1403,618L1534,576Z" fill="#101010" stroke="#101010"/><path d="M-88,623L-108,718L42,710Z" fill="#808080" stroke="#808080"/><path d="M-88,623L42,710L39,536Z" fill="#7c7c7c" stroke="#7c7c7c"/><path d="M39,536L42,710L231,598Z" fill="#757575" stroke="#757575"/><path d="M231,598L42,710L212,693Z" fill="#6f6f6f" stroke="#6f6f6f"/><path d="M231,598L212,693L279,699Z" fill="#696969" stroke="#696969"/><path d="M231,598L279,699L303,556Z" fill="#676767" stroke="#676767"/><path d="M303,556L279,699L425,592Z" fill="#616161" stroke="#616161"/><path d="M425,592L279,699L407,720Z" fill="#5c5c5c" stroke="#5c5c5c"/><path d="M425,592L407,720L537,696Z" fill="#545454" stroke="#545454"/><path d="M425,592L537,696L583,616Z" fill="#4e4e4e" stroke="#4e4e4e"/><path d="M583,616L537,696L744,696Z" fill="#444444" stroke="#444444"/><path d="M583,616L744,696L701,601Z" fill="#3e3e3e" stroke="#3e3e3e"/><path d="M701,601L744,696L815,580Z" fill="#373737" stroke="#373737"/><path d="M815,580L744,696L825,686Z" fill="#333333" stroke="#333333"/><path d="M815,580L825,686L981,565Z" fill="#2d2d2d" stroke="#2d2d2d"/><path d="M981,565L825,686L1016,699Z" fill="#232323" stroke="#232323"/><path d="M981,565L1016,699L1064,547Z" fill="#1e1e1e" stroke="#1e1e1e"/><path d="M1064,547L1016,699L1099,748Z" fill="#151515" stroke="#151515"/><path d="M1064,547L1099,748L1207,695Z" fill="#0e0e0e" stroke="#0e0e0e"/><path d="M1064,547L1207,695L1266,627Z" fill="#070707" stroke="#070707"/><path d="M1266,627L1207,695L1275,822Z" fill="#000000" stroke="#000000"/><path d="M1266,627L1275,822L1414,680Z" fill="#000000" stroke="#000000"/><path d="M1266,627L1414,680L1403,618Z" fill="#000000" stroke="#000000"/><path d="M1403,618L1414,680L1524,701Z" fill="#000000" stroke="#000000"/><path d="M1403,618L1524,701L1534,576Z" fill="#000000" stroke="#000000"/><path d="M-108,718L-21,850L42,710Z" fill="#7e7e7e" stroke="#7e7e7e"/><path d="M42,710L-21,850L40,882Z" fill="#7a7a7a" stroke="#7a7a7a"/><path d="M42,710L40,882L233,851Z" fill="#737373" stroke="#737373"/><path d="M42,710L233,851L212,693Z" fill="#6f6f6f" stroke="#6f6f6f"/><path d="M212,693L233,851L279,699Z" fill="#696969" stroke="#696969"/><path d="M279,699L233,851L357,822Z" fill="#646464" stroke="#646464"/><path d="M279,699L357,822L407,720Z" fill="#5e5e5e" stroke="#5e5e5e"/><path d="M407,720L357,822L473,872Z" fill="#585858" stroke="#585858"/><path d="M407,720L473,872L537,696Z" fill="#525252" stroke="#525252"/><path d="M537,696L473,872L537,867Z" fill="#4e4e4e" stroke="#4e4e4e"/><path d="M537,696L537,867L719,831Z" fill="#464646" stroke="#464646"/><path d="M537,696L719,831L744,696Z" fill="#3f3f3f" stroke="#3f3f3f"/><path d="M744,696L719,831L825,686Z" fill="#363636" stroke="#363636"/><path d="M825,686L719,831L840,859Z" fill="#333333" stroke="#333333"/><path d="M825,686L840,859L968,812Z" fill="#2a2a2a" stroke="#2a2a2a"/><path d="M825,686L968,812L1016,699Z" fill="#232323" stroke="#232323"/><path d="M1016,699L968,812L1088,809Z" fill="#191919" stroke="#191919"/><path d="M1016,699L1088,809L1099,748Z" fill="#141414" stroke="#141414"/><path d="M1099,748L1088,809L1275,822Z" fill="#0a0a0a" stroke="#0a0a0a"/><path d="M1099,748L1275,822L1207,695Z" fill="#060606" stroke="#060606"/><path d="M1414,680L1275,822L1352,837Z" fill="#000000" stroke="#000000"/><path d="M1414,680L1352,837L1524,701Z" fill="#000000" stroke="#000000"/><path d="M1524,701L1352,837L1500,889Z" fill="#000000" stroke="#000000"/><path d="M40,882L1500,889L473,872Z" fill="#3f3f3f" stroke="#3f3f3f"/><path d="M40,882L473,872L233,851Z" fill="#686868" stroke="#686868"/><path d="M233,851L473,872L357,822Z" fill="#5e5e5e" stroke="#5e5e5e"/><path d="M473,872L1500,889L840,859Z" fill="#232323" stroke="#232323"/><path d="M473,872L840,859L537,867Z" fill="#444444" stroke="#444444"/><path d="M537,867L840,859L719,831Z" fill="#3c3c3c" stroke="#3c3c3c"/><path d="M840,859L1500,889L1275,822Z" fill="#040404" stroke="#040404"/><path d="M840,859L1275,822L1088,809Z" fill="#141414" stroke="#141414"/><path d="M840,859L1088,809L968,812Z" fill="#202020" stroke="#202020"/><path d="M1275,822L1500,889L1352,837Z" fill="#000000" stroke="#000000"/></g></svg>