<?xml version="1.0" encoding="utf-8"?>
<!-- Generator: Adobe Illustrator 18.0.0, SVG Export Plug-In . SVG Version: 6.00 Build 0)  -->
<!DOCTYPE svg PUBLIC "-//W3C//DTD SVG 1.1//EN" "http://www.w3.org/Graphics/SVG/1.1/DTD/svg11.dtd">
<svg version="1.1" id="Layer_1" xmlns="http://www.w3.org/2000/svg" xmlns:xlink="http://www.w3.org/1999/xlink" x="0px" y="0px"
	 viewBox="0 0 300 300" enable-background="new 0 0 300 300" xml:space="preserve">
<g>
	<g id="XMLID_1_">
		<g>
			<path d="M187,255.2c1.3,1.4,2.2,3.2,2.2,5.3c0,2.1-0.8,3.9-2.2,5.3c-1.4,1.4-3.2,2.2-5.3,2.2c-4.1,0-7.5-3.4-7.5-7.5
				c0-1.9,0.7-3.6,1.9-5c0.1-0.1,0.2-0.2,0.3-0.3c1.3-1.4,3.2-2.2,5.3-2.2c1.7,0,3.3,0.6,4.6,1.6C186.5,254.8,186.8,255,187,255.2z"
				/>
			<path fill="#ED7023" d="M129.4,222c-2.7,0.1-5.2,0.2-7.5,0.2c-2,0-4.2-0.2-6.5-0.6c-17.8-3-44.2-16.1-44.2-23c0,0,0-1.4,0-3
				c0-1.6,1.2-3.1,3.3-4.5c1.1-0.7,2.5-1.4,4.1-2.1c12.1-5.1,37.7-8.8,68-9.3c2.6-0.1,5.3-0.1,8-0.1c14.6,0,43.9,21.1,43.9,31.6
				C198.6,214.5,156.2,220.9,129.4,222z"/>
			<path fill="#434343" d="M116.6,247.8L116.6,247.8c-30.8-0.1-55.7,3.3-56,7.5l0,0c-1.3-1.4-3.2-2.2-5.3-2.2c-0.3,0-0.6,0-0.8,0.1
				l0-0.1c0-5.9,25-10.8,55.9-10.8c2.3,0,4.3-8.5,5.1-20.7c2.4,0.4,4.6,0.6,6.5,0.6c2.3,0,4.8-0.1,7.5-0.2c0.6,12,1.9,20.3,3.4,20.3
				c29.5,0,53.4,5.5,53.4,12.3c-1.3-1-2.9-1.6-4.6-1.6c-2.1,0-4,0.8-5.3,2.2c-0.1,0.1-0.2,0.2-0.3,0.3c0-3.7-17.6-6.7-39.4-6.7
				c-5.6,0-10.1,0-10.1,0c-4.6,0-8.3,2.2-8.3,5l-0.1,0.1c-1.3-1.1-2.9-1.7-4.7-1.7c-1.3,0-2.6,0.4-3.7,1
				C110.7,250.3,113.3,248.1,116.6,247.8z"/>
			<path fill="#ED7023" d="M65.8,168.6c-1.3,0.4-2.3,0.7-3.2,1.1c4.9-9.1,8.5-48.4,8.5-95.4c0-9.3-9.5-16.8-21.3-16.8
				c0-4.2,41.6-7.6,92.9-7.6c13.2,0,23.9,8.1,23.9,18c0,52.3-7.4,94.7-16.6,94.7c-2.4,0-4.9,0-7.3,0c-31,0.3-57.6,2.1-71.6,4.8
				C69.1,167.8,67.3,168.2,65.8,168.6z"/>
			<path fill="#434343" d="M150,162.6c0,9.4,2.1,17,4.7,17c-2.7,0-5.4,0-8,0.1v-0.1c-2.2,0-3.9-7.6-3.9-16.9
				C145.1,162.6,147.6,162.6,150,162.6z"/>
			<path d="M109.8,253.2c1.1-0.6,2.4-1,3.7-1c1.8,0,3.4,0.6,4.7,1.7c0.2,0.2,0.4,0.3,0.6,0.5c1.4,1.4,2.2,3.2,2.2,5.3
				c0,2.1-0.8,4-2.2,5.3c-1.3,1.4-3.2,2.2-5.3,2.2c-4.1,0-7.5-3.4-7.5-7.5c0-2.1,0.8-3.9,2.2-5.3
				C108.6,253.9,109.2,253.5,109.8,253.2z"/>
			<path fill="#434343" d="M78.7,188.9c-1.6,0.7-3,1.4-4.1,2.1c-4.8-2-8.5-11.2-8.7-22.5c1.5-0.4,3.3-0.8,5.3-1.2
				C71.2,178.6,74.5,187.8,78.7,188.9z"/>
			<path d="M60.5,255.3c1.3,1.4,2.2,3.2,2.2,5.3c0,2.1-0.8,3.9-2.2,5.3c-1.3,1.4-3.2,2.2-5.3,2.2c-4.1,0-7.5-3.4-7.5-7.5
				c0-2.1,0.8-3.9,2.2-5.3c1.2-1.2,2.7-2,4.5-2.2c0.3,0,0.6-0.1,0.8-0.1C57.3,253,59.2,253.9,60.5,255.3L60.5,255.3z"/>
		</g>
		<g>
		</g>
	</g>
</g>
</svg>
